<svg width="48" height="48" viewBox="0 0 48 48" fill="none" xmlns="http://www.w3.org/2000/svg">
<mask id="mask0_37_13" style="mask-type:alpha" maskUnits="userSpaceOnUse" x="0" y="0" width="48" height="48">
<rect width="48" height="48" fill="#D9D9D9"/>
</mask>
<g mask="url(#mask0_37_13)">
<path d="M10.9 32C9.5 32 8.24167 31.55 7.125 30.65C6.00833 29.75 5.3 28.6 5 27.2L3.55 20.5L1.35 20.65L1 16.65C3.6 16.4167 5.825 16.25 7.675 16.15C9.525 16.05 11.1833 16 12.65 16C14.8167 16 16.5667 16.1 17.9 16.3C19.2333 16.5 20.4333 16.85 21.5 17.35C21.9667 17.5833 22.4083 17.75 22.825 17.85C23.2417 17.95 23.6333 18 24 18C24.3667 18 24.725 17.95 25.075 17.85C25.425 17.75 25.8333 17.6 26.3 17.4C27.4 16.9 28.6667 16.5417 30.1 16.325C31.5333 16.1083 33.4333 16 35.8 16C37.3333 16 39.0333 16.05 40.9 16.15C42.7667 16.25 44.8 16.4 47 16.6L46.65 20.55L44.5 20.4L43 27.25C42.7 28.65 42 29.7917 40.9 30.675C39.8 31.5583 38.55 32 37.15 32H32.7C31.3 32 30.0667 31.575 29 30.725C27.9333 29.875 27.2333 28.7833 26.9 27.45L25.55 22.1H22.5L21.15 27.45C20.7833 28.8167 20.0667 29.9167 19 30.75C17.9333 31.5833 16.7167 32 15.35 32H10.9ZM8.9 26.4C9 26.8667 9.23333 27.25 9.6 27.55C9.96667 27.85 10.3833 28 10.85 28H15.3C15.7667 28 16.1833 27.8583 16.55 27.575C16.9167 27.2917 17.15 26.9333 17.25 26.5L18.8 20.45C17.9 20.2833 16.8833 20.175 15.75 20.125C14.6167 20.075 13.5833 20.05 12.65 20.05C11.8833 20.05 11.0583 20.0583 10.175 20.075C9.29167 20.0917 8.46667 20.1333 7.7 20.2L8.9 26.4ZM30.75 26.5C30.85 26.9333 31.0833 27.2917 31.45 27.575C31.8167 27.8583 32.2333 28 32.7 28H37.15C37.6167 28 38.0333 27.85 38.4 27.55C38.7667 27.25 39 26.8667 39.1 26.4L40.4 20.15C39.7333 20.1167 38.9667 20.0917 38.1 20.075C37.2333 20.0583 36.4667 20.05 35.8 20.05C34.8 20.05 33.6917 20.075 32.475 20.125C31.2583 20.175 30.1667 20.2833 29.2 20.45L30.75 26.5Z" fill="#1C1B1F"/>
</g>
</svg>
